<?xml version="1.0" encoding="utf-8"?>
<!-- Generator: Adobe Illustrator 21.0.0, SVG Export Plug-In . SVG Version: 6.00 Build 0)  -->
<svg version="1.1" id="Layer_1" xmlns="http://www.w3.org/2000/svg" xmlns:xlink="http://www.w3.org/1999/xlink" x="0px" y="0px"
	 viewBox="0 0 389.2 512" style="enable-background:new 0 0 389.2 512;" xml:space="preserve">
<style type="text/css">
	.st0{fill:#FFFFFF;}
	.st1{fill:#F15A24;}
	.st2{fill:#4D4D4D;}
</style>
<path class="st0" d="M389.2,302.9v95.7c0,51.2-34.8,95-84.6,106.6l-0.7,0.1c-3.3,0.6-6.7,1.2-10.2,1.7c-20,3.3-40.1,5-59.6,5
	C163.4,512,108,492,65,451C23.6,411,0,349.1,0,281.1c0.1-20.2,2.3-39.8,6.4-58.5c4.8-21.2,12.3-41.2,22.2-59.4
	c9.9-18.2,22.2-34.7,36.4-49c7.8-7.8,16.3-15.1,25.3-21.7c4.5-3.2,9.2-6.4,14.1-9.4c0.9-0.6,2.1-1.2,3.3-1.9c0.5-0.3,1.2-0.7,1.7-1
	c0.2-0.6,0.5-1.3,0.7-2c0.6-1.9,1.3-3.8,2.2-5.6c2.1-4.4,4.7-8.2,8-11.8c5.7-6.1,12.2-10.3,18.3-13.9c3.9-2.4,7.9-4.5,11.9-6.7
	c4.5-2.4,8.7-4.7,12.6-7.2c12.1-7.7,24.6-15.7,38-22.6C211.3,5.1,225.3-1,242,0.1c18.2,1.4,35.8,10.2,54.3,26.9
	c10.5,9.6,16.7,21.4,21,31.3l0.1-0.1l10.3,26.3c3.5,9.1,8,19.6,14.1,29c4.7,7.2,10.7,14.2,17.8,20.7c2.8,2.7,5.7,5.2,9,7.8
	c0.6,0.5,1.5,1.1,2.4,1.7c6.6,4.5,21.8,14.9,17.6,32.4c-2.7,10.9-13.3,22-26.4,22c-0.1,0-0.3,0-0.4,0c-6.1-0.1-11.1-2.2-14.4-3.7
	l-1.5-0.7c-3.3-1.3-6.4-2.6-9.5-3.8l-11.2-4.5c-8.5-3.4-17.1-6.9-25.6-10.4c-4.5-1.9-9.1-3.9-13.7-6c-5.1-2.3-9.9-4.5-14.7-6.4
	c-2.4-1-4.6-1.8-6.9-2.5c-0.8-0.3-1.8-0.5-2.7-0.7l-0.8-0.2c-1.2,0.4-2.2,0.6-2.9,0.8l-1.1,0.2c-4.4,0.7-8.3,0.7-11.8,0.7
	c-1.7,0-3.4,0-5.2,0.1c-8.5,0.6-15.5,1.4-21.8,2.3c-11.3,1.8-22.1,4.8-31.7,9.1c-39.1,17.3-59.9,54.2-59.9,106.5
	c0,56.9,23.7,96.4,66.8,111.4c12.9,4.5,27.8,6.8,44.5,6.8h0.6c15.8,0,28.7-12.9,28.7-28.8v-23.6c-13.3-2.3-25.9-7.6-37.2-15.4
	c-25.8-17.8-43.1-50.1-43.1-81.5c0-1.1,0-15.5,0-15.5h133.5C358.4,233.1,389.2,264.5,389.2,302.9z"/>
<path class="st1" d="M358.1,155c-3.4-2.7-6.7-5.5-9.8-8.5c-7.7-7.1-14.8-15.1-20.6-23.9c-6.5-10-11.2-20.9-15.6-32
	c-3.5,4.2-7.5,8-12,10.9c-3.6,2.2-7.6,3.6-11.4,5c-1.9,0.7-3.9,1.3-5.5,2c-4,1.6-6.5,4.3-8.8,9.2c-3.5,7.3-6.1,15.4-8.7,23.2
	c-0.2,0.6-0.4,1.2-0.6,1.9c1.4,0.3,3,0.7,4.4,1.2c2.6,0.9,5.1,1.8,7.6,2.8c9.7,3.8,19.1,8.6,28.8,12.5c10.2,4.3,20.4,8.4,30.7,12.5
	c5.1,2.1,10.2,4.1,15.4,6.2c3.2,1.3,6.5,3.1,9.9,3.2c4.5,0.1,9.2-4.9,10.2-9.1C374.1,164.4,363,158.9,358.1,155z M322,136.3
	c-0.1-0.1-0.6-0.5-2.6-2.3c-2.4-2.1-9.8-9.8-10.2-10.2l-3.4-3.5l4.9,0.2c0.3,0,3.1,0.2,7,2.1c4.6,2.3,7.2,11.5,7.2,11.6l1.3,5
	L322,136.3z"/>
<path class="st2" d="M318.5,248.9H210.1c0,0.3,0,0.5,0.1,0.8c2.3,8.1,39.4,22,108.6,22l-12.7-0.2c-40.1,0-67.8,4.6-89.5-5.5
	c16.7,21.5,64.2,37.5,118.4,37.5l0,0c-59.7,0-109.2-8.1-127.2-33.3c4.7,18.6,16.1,34.6,31.4,45.2c12.6,8.7,27.9,13.9,44.4,13.9v38.9
	c0,25.1-20.3,45.6-45.5,45.6h-0.6c-18.5,0-35.2-2.6-50-7.8c-49.7-17.2-78.1-62-78.1-127.2c0-59.5,25.3-102.1,69.9-121.8
	c11.5-5.1,23.6-8.4,36-10.3c7.6-1.1,15.2-1.9,22.8-2.5c5.3-0.5,10.5,0.2,15.8-0.7c0.9-0.2,1.8-0.4,2.7-0.9c3.4-2,3.5-9.2,4.7-12.6
	c1.8-5.3,3.7-10.4,6.1-15.5c3.1-6.5,7-10.5,12.7-12.9c2-0.9,4-1.6,6-2.3c3.5-1.1,6.9-2.4,9.8-4.1c4.9-3.2,9-7.8,12.8-12.7
	c-0.5-1.2-0.9-2.3-1.3-3.5c-1.4-3.6-2.9-7.3-4.4-11c-4.3-10.5-9.6-20.7-18.1-28.4c-12.2-11-27.2-21.2-44.1-22.6
	c-11.6-0.8-22.1,3.3-32.2,8.5C196,31.9,184,39.5,172.1,47.2c-8.1,5.2-16.7,9.2-25,14.2c-5.2,3.1-10.3,6.4-14.5,10.8
	c-2,2.2-3.8,4.7-5.2,7.5c-1.5,3.3-2.2,7.1-4.2,10.2c-2.4,3.7-6.5,5.3-10.1,7.6c-4.4,2.7-8.7,5.6-12.9,8.6c-8.2,6-16.1,12.7-23.4,20
	c-13.3,13.3-24.6,28.6-33.6,45.2c-9.4,17.2-16.2,35.9-20.5,55c-4,18-5.9,36.4-6,54.8c0,63.5,21.8,121.1,59.8,157.8
	c39.7,37.9,91.3,56.4,157.6,56.4c20.4,0,39.6-1.9,57.1-4.8c3.3-0.5,6.5-1.1,9.6-1.6c41.1-9.6,71.6-46.3,71.6-90.2v-95.7
	C372.5,273.1,348.4,248.9,318.5,248.9z M227.3,67c0.7-1.6,1.5-3,2.7-4.1c3.2-3.2,8-4.4,12.5-2.7c1.4,0.6,2.7,1.3,3.7,2.3
	c3.4,3.2,4.9,8.3,3.1,12.9c-2.3,6.1-9.1,9.2-15.2,6.8C228,79.9,224.9,73.1,227.3,67z"/>
</svg>
