<?xml version="1.0" encoding="utf-8"?>
<!-- Generator: Adobe Illustrator 21.0.0, SVG Export Plug-In . SVG Version: 6.00 Build 0)  -->
<svg version="1.1" id="Layer_1" xmlns="http://www.w3.org/2000/svg" xmlns:xlink="http://www.w3.org/1999/xlink" x="0px" y="0px"
	 viewBox="0 0 194.6 256" style="enable-background:new 0 0 194.6 256;" xml:space="preserve">
<style type="text/css">
	.st0{fill:#FFFFFF;}
	.st1{fill:#F15A24;}
	.st2{fill:#4D4D4D;}
</style>
<path class="st0" d="M194.6,151.4v47.9c0,25.6-17.4,47.5-42.3,53.3l-0.4,0.1c-1.6,0.3-3.4,0.6-5.1,0.9c-10,1.7-20.1,2.5-29.8,2.5
	c-35.4,0-63.1-10-84.6-30.5c-20.7-20-32.5-50.9-32.5-85c0-10.1,1.1-19.9,3.2-29.2c2.4-10.6,6.1-20.6,11.1-29.7
	c5-9.1,11.1-17.4,18.2-24.5c3.9-3.9,8.2-7.6,12.7-10.8c2.3-1.6,4.6-3.2,7.1-4.7c0.5-0.3,1-0.6,1.6-0.9c0.3-0.2,0.6-0.4,0.9-0.5
	c0.1-0.3,0.2-0.7,0.4-1c0.3-1,0.6-1.9,1.1-2.8c1-2.2,2.4-4.1,4-5.9c2.9-3.1,6.1-5.1,9.2-7c2-1.2,4-2.3,5.9-3.3
	c2.2-1.2,4.4-2.3,6.3-3.6c6-3.9,12.3-7.9,19-11.3c5.1-2.7,12.1-5.7,20.4-5.2c9.1,0.7,17.9,5.1,27.1,13.4c5.2,4.8,8.4,10.7,10.5,15.6
	l0.1-0.1l5.1,13.1c1.8,4.5,4,9.8,7,14.5c2.3,3.6,5.4,7.1,8.9,10.3c1.4,1.3,2.8,2.6,4.5,3.9c0.3,0.2,0.7,0.5,1.2,0.9
	c3.3,2.2,10.9,7.5,8.8,16.2c-1.4,5.5-6.7,11-13.2,11c-0.1,0-0.1,0-0.2,0c-3.1,0-5.6-1.1-7.2-1.8l-0.8-0.3c-1.6-0.7-3.2-1.3-4.7-1.9
	l-5.6-2.3c-4.3-1.7-8.5-3.4-12.8-5.2c-2.2-0.9-4.6-2-6.9-3c-2.5-1.1-5-2.2-7.4-3.2c-1.2-0.5-2.3-0.9-3.4-1.3
	c-0.4-0.1-0.9-0.3-1.3-0.4l-0.4-0.1c-0.6,0.2-1.1,0.3-1.5,0.4l-0.6,0.1c-2.2,0.4-4.1,0.3-5.9,0.3c-0.9,0-1.7,0-2.6,0.1
	c-4.2,0.3-7.8,0.7-10.9,1.2c-5.7,0.9-11,2.4-15.9,4.5c-19.6,8.7-29.9,27.1-29.9,53.3c0,28.4,11.9,48.2,33.4,55.7
	c6.5,2.2,13.9,3.4,22.2,3.4h0.3c7.9,0,14.4-6.5,14.4-14.4v-11.8c-6.6-1.2-12.9-3.8-18.6-7.7c-12.9-8.9-21.5-25-21.5-40.8
	c0-0.5,0-7.7,0-7.7h66.8C179.2,116.5,194.6,132.2,194.6,151.4z"/>
<path class="st1" d="M179.1,77.5c-1.7-1.4-3.3-2.8-4.9-4.3c-3.9-3.5-7.4-7.6-10.3-12c-3.2-5-5.6-10.4-7.8-16c-1.8,2.1-3.8,4-6,5.5
	c-1.8,1.1-3.8,1.8-5.7,2.5c-1,0.3-1.9,0.7-2.8,1c-2,0.8-3.2,2.2-4.4,4.6c-1.7,3.7-3,7.7-4.3,11.6c-0.1,0.3-0.2,0.6-0.3,0.9
	c0.7,0.2,1.5,0.4,2.2,0.6c1.3,0.4,2.6,0.9,3.8,1.4c4.8,1.9,9.6,4.3,14.4,6.3c5.1,2.1,10.2,4.2,15.3,6.3c2.6,1,5.1,2.1,7.7,3.1
	c1.6,0.6,3.2,1.5,5,1.6c2.3,0,4.6-2.5,5.1-4.6C187,82.2,181.5,79.5,179.1,77.5z M161,68.1c-0.1-0.1-0.3-0.3-1.3-1.1
	c-1.2-1.1-4.9-4.9-5.1-5.1l-1.7-1.8l2.5,0.1c0.1,0,1.5,0.1,3.5,1c2.3,1.1,3.6,5.7,3.6,5.8l0.6,2.5L161,68.1z"/>
<path class="st2" d="M159.2,124.5H105c0,0.1,0,0.2,0,0.4c1.1,4.1,19.7,11,54.3,11l-6.3-0.1c-20,0-33.9,2.3-44.7-2.7
	c8.4,10.8,32.1,18.8,59.2,18.8l0,0c-29.9,0-54.6-4.1-63.6-16.7c2.3,9.3,8,17.3,15.7,22.6c6.3,4.4,14,6.9,22.2,6.9v19.4
	c0,12.5-10.1,22.8-22.7,22.8h-0.3c-9.2,0-17.6-1.3-25-3.9c-24.8-8.6-39-31-39-63.6c0-29.8,12.6-51.1,34.9-60.9
	c5.7-2.5,11.8-4.2,18-5.2c3.8-0.6,7.6-1,11.4-1.2c2.6-0.2,5.3,0.1,7.9-0.3c0.4-0.1,0.9-0.2,1.3-0.4c1.7-1,1.8-4.6,2.3-6.3
	c0.9-2.6,1.9-5.2,3.1-7.8c1.5-3.3,3.5-5.3,6.4-6.5c1-0.4,2-0.8,3-1.1c1.8-0.6,3.4-1.2,4.9-2.1c2.4-1.6,4.5-3.9,6.4-6.4
	c-0.2-0.6-0.4-1.1-0.7-1.8c-0.7-1.8-1.4-3.6-2.2-5.5c-2.2-5.3-4.8-10.3-9-14.2c-6.1-5.5-13.6-10.6-22.1-11.3
	c-5.8-0.4-11.1,1.6-16.1,4.3C98,15.9,92,19.8,86,23.6c-4.1,2.6-8.4,4.6-12.5,7.1c-2.6,1.5-5.2,3.2-7.2,5.4c-1,1.1-1.9,2.3-2.6,3.7
	c-0.8,1.7-1.1,3.5-2.1,5.1c-1.2,1.9-3.3,2.6-5.1,3.8c-2.2,1.3-4.4,2.8-6.5,4.3c-4.1,3-8,6.4-11.7,10c-6.7,6.7-12.3,14.3-16.8,22.6
	c-4.7,8.6-8.1,17.9-10.2,27.5c-2,9-3,18.2-3,27.4c0,31.8,10.9,60.5,29.9,78.9c19.9,18.9,45.7,28.2,78.8,28.2c10.2,0,19.8-1,28.6-2.4
	c1.6-0.2,3.3-0.5,4.8-0.8c20.5-4.8,35.8-23.2,35.8-45.1v-47.9C186.2,136.6,174.2,124.5,159.2,124.5z M113.6,33.5
	c0.3-0.8,0.8-1.5,1.3-2.1c1.6-1.6,4-2.2,6.3-1.3c0.7,0.3,1.3,0.7,1.9,1.1c1.7,1.6,2.4,4.2,1.5,6.5c-1.1,3.1-4.5,4.6-7.6,3.4
	C114,40,112.5,36.6,113.6,33.5z"/>
</svg>
