<?xml version="1.0" encoding="utf-8"?>
<!-- Generator: Adobe Illustrator 21.0.0, SVG Export Plug-In . SVG Version: 6.00 Build 0)  -->
<svg version="1.1" id="Layer_1" xmlns="http://www.w3.org/2000/svg" xmlns:xlink="http://www.w3.org/1999/xlink" x="0px" y="0px"
	 viewBox="0 0 97.3 128" style="enable-background:new 0 0 97.3 128;" xml:space="preserve">
<style type="text/css">
	.st0{fill:#FFFFFF;}
	.st1{fill:#F15A24;}
	.st2{fill:#4D4D4D;}
</style>
<path class="st0" d="M97.3,75.7v23.9c0,12.8-8.7,23.7-21.1,26.6l-0.2,0c-0.8,0.2-1.7,0.3-2.5,0.4c-5,0.8-10,1.2-14.9,1.2
	c-17.7,0-31.5-5-42.3-15.3C5.9,102.8,0,87.3,0,70.3c0-5,0.6-10,1.6-14.6c1.2-5.3,3.1-10.3,5.5-14.8c2.5-4.6,5.5-8.7,9.1-12.3
	c1.9-1.9,4.1-3.8,6.3-5.4c1.1-0.8,2.3-1.6,3.5-2.4c0.2-0.1,0.5-0.3,0.8-0.5c0.1-0.1,0.3-0.2,0.4-0.3c0.1-0.1,0.1-0.3,0.2-0.5
	c0.2-0.5,0.3-0.9,0.5-1.4c0.5-1.1,1.2-2,2-3c1.4-1.5,3.1-2.6,4.6-3.5c1-0.6,2-1.1,3-1.7c1.1-0.6,2.2-1.2,3.2-1.8
	c3-1.9,6.1-3.9,9.5-5.6c2.5-1.3,6-2.9,10.2-2.6c4.5,0.4,9,2.6,13.6,6.7c2.6,2.4,4.2,5.3,5.3,7.8l0,0l2.6,6.6c0.9,2.3,2,4.9,3.5,7.2
	c1.2,1.8,2.7,3.5,4.5,5.2c0.7,0.7,1.4,1.3,2.2,1.9c0.2,0.1,0.4,0.3,0.6,0.4c1.6,1.1,5.4,3.7,4.4,8.1c-0.7,2.7-3.3,5.5-6.6,5.5
	c0,0-0.1,0-0.1,0c-1.5,0-2.8-0.6-3.6-0.9l-0.4-0.2c-0.8-0.3-1.6-0.6-2.4-1l-2.8-1.1c-2.1-0.9-4.3-1.7-6.4-2.6
	c-1.1-0.5-2.3-1-3.4-1.5c-1.3-0.6-2.5-1.1-3.7-1.6c-0.6-0.3-1.2-0.4-1.7-0.6c-0.2-0.1-0.4-0.1-0.7-0.2l-0.2,0
	c-0.3,0.1-0.6,0.2-0.7,0.2L64.2,40c-1.1,0.2-2.1,0.2-2.9,0.2c-0.4,0-0.9,0-1.3,0c-2.1,0.2-3.9,0.3-5.5,0.6c-2.8,0.4-5.5,1.2-7.9,2.3
	c-9.8,4.3-15,13.5-15,26.6c0,14.2,5.9,24.1,16.7,27.8c3.2,1.1,7,1.7,11.1,1.7h0.1c4,0,7.2-3.2,7.2-7.2v-5.9
	c-3.3-0.6-6.5-1.9-9.3-3.8C51,77.8,46.7,69.8,46.7,61.9c0-0.3,0-3.9,0-3.9H80C89.6,58.3,97.3,66.1,97.3,75.7z"/>
<path class="st1" d="M89.5,38.7c-0.8-0.7-1.7-1.4-2.5-2.1c-1.9-1.8-3.7-3.8-5.1-6c-1.6-2.5-2.8-5.2-3.9-8c-0.9,1.1-1.9,2-3,2.7
	c-0.9,0.6-1.9,0.9-2.9,1.2c-0.5,0.2-1,0.3-1.4,0.5c-1,0.4-1.6,1.1-2.2,2.3c-0.9,1.8-1.5,3.9-2.2,5.8c0,0.2-0.1,0.3-0.1,0.5
	c0.4,0.1,0.7,0.2,1.1,0.3c0.6,0.2,1.3,0.4,1.9,0.7c2.4,0.9,4.8,2.1,7.2,3.1c2.5,1.1,5.1,2.1,7.7,3.1c1.3,0.5,2.6,1,3.8,1.6
	c0.8,0.3,1.6,0.8,2.5,0.8c1.1,0,2.3-1.2,2.6-2.3C93.5,41.1,90.8,39.7,89.5,38.7z M80.5,34.1c0,0-0.1-0.1-0.6-0.6
	C79.3,33,77.4,31,77.3,31l-0.9-0.9l1.2,0c0.1,0,0.8,0,1.8,0.5c1.2,0.6,1.8,2.9,1.8,2.9l0.3,1.2L80.5,34.1z"/>
<path class="st2" d="M79.6,62.2H52.5c0,0.1,0,0.1,0,0.2c0.6,2,9.9,5.5,27.2,5.5l-3.2,0c-10,0-17,1.1-22.4-1.4
	c4.2,5.4,16.1,9.4,29.6,9.4l0,0c-14.9,0-27.3-2-31.8-8.3c1.2,4.6,4,8.7,7.8,11.3c3.2,2.2,7,3.5,11.1,3.5V92
	c0,6.3-5.1,11.4-11.4,11.4h-0.1c-4.6,0-8.8-0.6-12.5-1.9C34.5,97.2,27.4,86,27.4,69.7c0-14.9,6.3-25.5,17.5-30.5
	c2.9-1.3,5.9-2.1,9-2.6c1.9-0.3,3.8-0.5,5.7-0.6c1.3-0.1,2.6,0,3.9-0.2c0.2,0,0.5-0.1,0.7-0.2c0.9-0.5,0.9-2.3,1.2-3.2
	c0.5-1.3,0.9-2.6,1.5-3.9c0.8-1.6,1.7-2.6,3.2-3.2c0.5-0.2,1-0.4,1.5-0.6c0.9-0.3,1.7-0.6,2.4-1c1.2-0.8,2.2-1.9,3.2-3.2
	c-0.1-0.3-0.2-0.6-0.3-0.9c-0.4-0.9-0.7-1.8-1.1-2.8c-1.1-2.6-2.4-5.2-4.5-7.1c-3-2.8-6.8-5.3-11-5.6c-2.9-0.2-5.5,0.8-8,2.1
	C49,8,46,9.9,43,11.8c-2,1.3-4.2,2.3-6.2,3.5c-1.3,0.8-2.6,1.6-3.6,2.7c-0.5,0.6-1,1.2-1.3,1.9c-0.4,0.8-0.6,1.8-1.1,2.6
	c-0.6,0.9-1.6,1.3-2.5,1.9c-1.1,0.7-2.2,1.4-3.2,2.2c-2.1,1.5-4,3.2-5.8,5c-3.3,3.3-6.1,7.2-8.4,11.3c-2.3,4.3-4,9-5.1,13.8
	c-1,4.5-1.5,9.1-1.5,13.7c0,15.9,5.5,30.3,15,39.5c9.9,9.5,22.8,14.1,39.4,14.1c5.1,0,9.9-0.5,14.3-1.2c0.8-0.1,1.6-0.3,2.4-0.4
	c10.3-2.4,17.9-11.6,17.9-22.6V75.7C93.1,68.3,87.1,62.2,79.6,62.2z M56.8,16.7c0.2-0.4,0.4-0.7,0.7-1c0.8-0.8,2-1.1,3.1-0.7
	c0.4,0.1,0.7,0.3,0.9,0.6c0.9,0.8,1.2,2.1,0.8,3.2c-0.6,1.5-2.3,2.3-3.8,1.7C57,20,56.2,18.3,56.8,16.7z"/>
</svg>
