<?xml version="1.0" encoding="utf-8"?>
<!-- Generator: Adobe Illustrator 21.0.0, SVG Export Plug-In . SVG Version: 6.00 Build 0)  -->
<svg version="1.1" id="Layer_1" xmlns="http://www.w3.org/2000/svg" xmlns:xlink="http://www.w3.org/1999/xlink" x="0px" y="0px"
	 viewBox="0 0 95.2 128" style="enable-background:new 0 0 95.2 128;" xml:space="preserve">
<style type="text/css">
	.st0{fill:#FFFFFF;}
</style>
<path class="st0" d="M91.3,37c-0.9-0.7-1.8-1.5-2.6-2.3c-2.1-1.9-4-4-5.5-6.4c-1.7-2.7-3-5.6-4.2-8.6c-0.9,1.1-2,2.1-3.2,2.9
	c-1,0.6-2,1-3.1,1.3c-0.5,0.2-1,0.4-1.5,0.5c-1.1,0.4-1.7,1.2-2.4,2.5c-0.9,2-1.6,4.1-2.3,6.2c0,0.2-0.1,0.3-0.1,0.5
	c0.4,0.1,0.8,0.2,1.2,0.3c0.7,0.2,1.4,0.5,2,0.8c2.6,1,5.1,2.3,7.7,3.3c2.7,1.1,5.5,2.2,8.2,3.3c1.4,0.6,2.7,1.1,4.1,1.7
	c0.8,0.3,1.7,0.8,2.7,0.8c1.2,0,2.5-1.3,2.7-2.4C95.6,39.5,92.6,38,91.3,37z M81.6,32c0,0-0.2-0.1-0.7-0.6c-0.6-0.6-2.6-2.6-2.7-2.7
	l-0.9-0.9l1.3,0c0.1,0,0.8,0,1.9,0.6c1.2,0.6,1.9,3.1,1.9,3.1l0.3,1.3L81.6,32z"/>
<path class="st0" d="M80.7,62.1h-29c0,0.1,0,0.1,0,0.2c0.6,2.2,10.5,5.9,29.1,5.9l-3.4,0c-10.7,0-18.1,1.2-23.9-1.5
	c4.5,5.8,17.2,10,31.7,10l0,0c-16,0-29.2-2.2-34-8.9c1.3,5,4.3,9.3,8.4,12.1c3.4,2.3,7.5,3.7,11.9,3.7V94c0,6.7-5.4,12.2-12.2,12.2
	h-0.2c-4.9,0-9.4-0.7-13.4-2.1c-13.3-4.6-20.9-16.6-20.9-34c0-15.9,6.8-27.3,18.7-32.6c3.1-1.4,6.3-2.3,9.6-2.8
	c2-0.3,4.1-0.5,6.1-0.7c1.4-0.1,2.8,0.1,4.2-0.2c0.2-0.1,0.5-0.1,0.7-0.2c0.9-0.5,0.9-2.5,1.3-3.4c0.5-1.4,1-2.8,1.6-4.1
	c0.8-1.7,1.9-2.8,3.4-3.5c0.5-0.2,1.1-0.4,1.6-0.6c0.9-0.3,1.8-0.6,2.6-1.1c1.3-0.8,2.4-2.1,3.4-3.4c-0.1-0.3-0.2-0.6-0.4-0.9
	c-0.4-1-0.8-1.9-1.2-2.9c-1.2-2.8-2.6-5.5-4.8-7.6C68.5,3.1,64.5,0.4,60,0c-3.1-0.2-5.9,0.9-8.6,2.3c-3.4,1.7-6.6,3.8-9.8,5.8
	c-2.2,1.4-4.5,2.5-6.7,3.8c-1.4,0.8-2.8,1.7-3.9,2.9c-0.5,0.6-1,1.3-1.4,2c-0.4,0.9-0.6,1.9-1.1,2.7c-0.6,1-1.7,1.4-2.7,2
	c-1.2,0.7-2.3,1.5-3.5,2.3c-2.2,1.6-4.3,3.4-6.2,5.4c-3.6,3.6-6.6,7.7-9,12.1C4.6,45.9,2.8,50.9,1.6,56C0.5,60.9,0,65.8,0,70.7
	c0,17,5.8,32.4,16,42.2C26.6,123.1,40.4,128,58.2,128c5.5,0,10.6-0.5,15.3-1.3c0.9-0.1,1.7-0.3,2.6-0.4c11-2.6,19.1-12.4,19.1-24.1
	V76.5C95.2,68.6,88.7,62.1,80.7,62.1z M56.3,13.4c0.2-0.4,0.4-0.8,0.7-1.1c0.8-0.8,2.2-1.2,3.4-0.7c0.4,0.2,0.7,0.4,1,0.6
	c0.9,0.8,1.3,2.2,0.8,3.5c-0.6,1.6-2.4,2.5-4.1,1.8C56.5,16.9,55.7,15.1,56.3,13.4z"/>
</svg>
