<?xml version="1.0" encoding="utf-8"?>
<!-- Generator: Adobe Illustrator 21.0.0, SVG Export Plug-In . SVG Version: 6.00 Build 0)  -->
<svg version="1.1" id="Layer_1" xmlns="http://www.w3.org/2000/svg" xmlns:xlink="http://www.w3.org/1999/xlink" x="0px" y="0px"
	 viewBox="0 0 190.3 254.7" style="enable-background:new 0 0 190.3 254.7;" xml:space="preserve">
<path d="M182.6,74c-1.8-1.5-3.6-3-5.3-4.6c-4.1-3.8-7.9-8.1-11-12.8c-3.5-5.4-6-11.2-8.3-17.1c-1.9,2.3-4,4.3-6.4,5.8
	c-1.9,1.2-4.1,1.9-6.1,2.7c-1,0.4-2.1,0.7-3,1.1c-2.1,0.9-3.5,2.3-4.7,4.9c-1.9,3.9-3.2,8.3-4.6,12.4c-0.1,0.3-0.2,0.6-0.3,1
	c0.8,0.2,1.6,0.4,2.4,0.6c1.4,0.5,2.7,1,4.1,1.5c5.2,2,10.2,4.6,15.4,6.7c5.4,2.3,10.9,4.5,16.4,6.7c2.7,1.1,5.5,2.2,8.2,3.3
	c1.7,0.7,3.5,1.6,5.3,1.7c2.4,0,4.9-2.6,5.5-4.9C191.2,79,185.3,76.1,182.6,74z M163.3,63.9c-0.1-0.1-0.3-0.3-1.4-1.2
	c-1.3-1.1-5.3-5.3-5.4-5.4l-1.8-1.9l2.6,0.1c0.1,0,1.6,0.1,3.8,1.1c2.5,1.2,3.9,6.1,3.9,6.2l0.7,2.7L163.3,63.9z"/>
<path d="M161.4,124.2h-58c0,0.2,0,0.3,0.1,0.4c1.2,4.4,21.1,11.8,58.1,11.8l-6.8-0.1c-21.5,0-36.3,2.4-47.9-2.9
	c9,11.5,34.4,20.1,63.3,20.1l0,0c-31.9,0-58.4-4.4-68-17.8c2.5,9.9,8.6,18.5,16.8,24.2c6.8,4.7,15,7.4,23.8,7.4V188
	c0,13.4-10.9,24.4-24.3,24.4h-0.3c-9.9,0-18.8-1.4-26.7-4.1c-26.6-9.2-41.8-33.2-41.8-68c0-31.8,13.5-54.6,37.4-65.2
	c6.1-2.7,12.6-4.5,19.3-5.5c4-0.6,8.1-1,12.2-1.3c2.8-0.3,5.6,0.1,8.4-0.4c0.5-0.1,1-0.2,1.4-0.5c1.8-1.1,1.9-4.9,2.5-6.8
	c1-2.8,2-5.6,3.3-8.3c1.6-3.5,3.7-5.6,6.8-6.9c1.1-0.5,2.2-0.9,3.2-1.2c1.9-0.6,3.7-1.3,5.2-2.2c2.6-1.7,4.8-4.1,6.9-6.8
	c-0.3-0.7-0.5-1.2-0.7-1.9c-0.8-1.9-1.5-3.9-2.4-5.9c-2.3-5.6-5.1-11.1-9.7-15.2C137,6.2,129,0.8,119.9,0.1
	c-6.2-0.4-11.8,1.7-17.2,4.6c-6.8,3.5-13.2,7.6-19.6,11.7c-4.4,2.8-9,4.9-13.4,7.6c-2.8,1.6-5.5,3.4-7.7,5.8c-1.1,1.2-2,2.5-2.8,4
	c-0.8,1.8-1.2,3.8-2.3,5.5c-1.3,2-3.5,2.8-5.4,4c-2.4,1.4-4.7,3-6.9,4.6C40.2,51,36,54.6,32.2,58.5C25,65.6,19,73.8,14.2,82.6
	c-5,9.2-8.7,19.2-11,29.4c-2.2,9.6-3.2,19.5-3.2,29.3c0,34,11.7,64.8,32,84.4c21.2,20.3,48.8,30.2,84.3,30.2c10.9,0,21.2-1,30.6-2.6
	c1.7-0.3,3.5-0.6,5.1-0.9c22-5.1,38.3-24.8,38.3-48.3v-51.2C190.3,137.2,177.4,124.2,161.4,124.2z M112.6,26.9
	c0.4-0.9,0.8-1.6,1.4-2.2c1.7-1.7,4.3-2.4,6.7-1.4c0.8,0.3,1.4,0.7,2,1.2c1.8,1.7,2.6,4.5,1.6,6.9c-1.2,3.3-4.9,4.9-8.1,3.6
	C113,33.8,111.4,30.2,112.6,26.9z"/>
</svg>
