<?xml version="1.0" encoding="utf-8"?>
<!-- Generator: Adobe Illustrator 21.0.0, SVG Export Plug-In . SVG Version: 6.00 Build 0)  -->
<svg version="1.1" id="Layer_1" xmlns="http://www.w3.org/2000/svg" xmlns:xlink="http://www.w3.org/1999/xlink" x="0px" y="0px"
	 viewBox="0 0 379.2 512" style="enable-background:new 0 0 379.2 512;" xml:space="preserve">
<style type="text/css">
	.st0{fill:#F15A24;}
	.st1{fill:#4D4D4D;}
</style>
<path class="st0" d="M363.9,147.9c-3.6-2.9-7.2-5.9-10.5-9.1c-8.3-7.6-15.8-16.2-22-25.6c-6.9-10.7-12-22.4-16.7-34.2
	c-3.8,4.5-8.1,8.6-12.8,11.7c-3.9,2.4-8.1,3.9-12.2,5.3c-2,0.7-4.1,1.4-5.9,2.2c-4.3,1.7-6.9,4.7-9.4,9.9
	c-3.7,7.9-6.5,16.5-9.3,24.9c-0.2,0.7-0.4,1.3-0.6,2c1.5,0.3,3.2,0.8,4.7,1.3c2.8,0.9,5.5,1.9,8.1,3c10.4,4.1,20.5,9.2,30.8,13.4
	c10.9,4.6,21.8,9,32.8,13.4c5.5,2.2,10.9,4.4,16.4,6.7c3.4,1.4,6.9,3.3,10.6,3.4c4.9,0.1,9.9-5.3,11-9.8
	C381,158,369.2,152.1,363.9,147.9z M325.2,127.9c-0.1-0.1-0.6-0.6-2.7-2.4c-2.5-2.3-10.5-10.5-10.9-10.9l-3.7-3.8l5.3,0.2
	c0.3,0,3.3,0.2,7.5,2.2c4.9,2.4,7.7,12.3,7.7,12.4l1.4,5.3L325.2,127.9z"/>
<path class="st1" d="M321.5,248.4h-116c0,0.3,0,0.5,0.1,0.8c2.5,8.7,42.2,23.6,116.2,23.6l-13.5-0.2c-42.9,0-72.6,4.9-95.7-5.9
	c17.9,23,68.7,40.1,126.7,40.1l0,0c-63.9,0-116.8-8.7-136.1-35.6c5,19.9,17.2,37.1,33.6,48.3c13.5,9.3,29.9,14.8,47.5,14.8V376
	c0,26.8-21.7,48.7-48.6,48.7H235c-19.8,0-37.7-2.8-53.5-8.3C128.4,398,98,350.1,98,280.4c0-63.7,27-109.3,74.8-130.4
	c12.3-5.4,25.3-9,38.5-11.1c8.1-1.2,16.3-2,24.4-2.7c5.6-0.5,11.3,0.2,16.9-0.7c0.9-0.2,1.9-0.4,2.9-0.9c3.7-2.2,3.8-9.8,5-13.5
	c1.9-5.6,4-11.2,6.6-16.6c3.3-7,7.5-11.3,13.6-13.8c2.2-0.9,4.3-1.7,6.5-2.5c3.8-1.2,7.4-2.6,10.4-4.4c5.2-3.4,9.6-8.3,13.7-13.6
	c-0.5-1.3-0.9-2.5-1.4-3.8c-1.5-3.9-3.1-7.8-4.7-11.8c-4.6-11.3-10.2-22.1-19.4-30.4c-13-11.8-29.1-22.7-47.2-24.2
	c-12.4-0.8-23.7,3.5-34.4,9.1c-13.6,7-26.4,15.2-39.2,23.3c-8.7,5.5-17.9,9.8-26.7,15.2c-5.5,3.3-11.1,6.9-15.5,11.6
	c-2.2,2.4-4.1,5-5.5,8c-1.6,3.6-2.4,7.6-4.5,11c-2.6,4-7,5.6-10.9,8.1c-4.7,2.9-9.3,6-13.8,9.2c-8.8,6.5-17.2,13.6-25,21.4
	c-14.2,14.2-26.3,30.6-35.9,48.3c-10,18.4-17.3,38.4-21.9,58.9c-4.3,19.3-6.3,38.9-6.5,58.7c0,68,23.3,129.5,64,168.9
	c42.5,40.6,97.7,60.3,168.7,60.3c21.8,0,42.4-2,61.1-5.1c3.5-0.5,7-1.1,10.2-1.7c43.9-10.2,76.6-49.6,76.6-96.6V306.2
	C379.2,274.3,353.4,248.4,321.5,248.4z M223.9,53.8c0.7-1.7,1.6-3.2,2.9-4.4c3.4-3.4,8.6-4.7,13.4-2.9c1.5,0.6,2.9,1.4,4,2.5
	c3.7,3.4,5.2,8.9,3.3,13.8c-2.5,6.6-9.7,9.8-16.3,7.3C224.6,67.6,221.3,60.3,223.9,53.8z"/>
</svg>
