<?xml version="1.0" encoding="utf-8"?>
<!-- Generator: Adobe Illustrator 21.0.0, SVG Export Plug-In . SVG Version: 6.00 Build 0)  -->
<svg version="1.1" id="Layer_1" xmlns="http://www.w3.org/2000/svg" xmlns:xlink="http://www.w3.org/1999/xlink" x="0px" y="0px"
	 viewBox="0 0 496.9 200" style="enable-background:new 0 0 496.9 200;" xml:space="preserve">
<style type="text/css">
	.st0{fill:#F15A24;}
	.st1{fill:#4D4D4D;}
</style>
<path class="st0" d="M142.7,57.8c-1.4-1.1-2.8-2.3-4.1-3.6c-3.2-3-6.2-6.3-8.6-10c-2.7-4.2-4.7-8.7-6.5-13.4c-1.5,1.8-3.1,3.3-5,4.6
	c-1.5,0.9-3.2,1.5-4.8,2.1c-0.8,0.3-1.6,0.6-2.3,0.9c-1.7,0.7-2.7,1.8-3.7,3.8c-1.4,3.1-2.5,6.4-3.6,9.7c-0.1,0.3-0.2,0.5-0.2,0.8
	c0.6,0.1,1.3,0.3,1.8,0.5c1.1,0.4,2.1,0.8,3.2,1.2c4.1,1.6,8,3.6,12.1,5.2c4.2,1.8,8.5,3.5,12.8,5.2c2.1,0.9,4.3,1.7,6.4,2.6
	c1.3,0.5,2.7,1.3,4.1,1.3c1.9,0,3.8-2.1,4.3-3.8C149.4,61.7,144.7,59.4,142.7,57.8z M127.6,49.9c-0.1,0-0.3-0.2-1.1-1
	c-1-0.9-4.1-4.1-4.2-4.2l-1.4-1.5l2.1,0.1c0.1,0,1.3,0.1,2.9,0.9c1.9,1,3,4.8,3,4.9l0.5,2.1L127.6,49.9z"/>
<path class="st1" d="M126.1,97H80.8c0,0.1,0,0.2,0,0.3c1,3.4,16.5,9.2,45.4,9.2l-5.3-0.1c-16.8,0-28.4,1.9-37.4-2.3
	c7,9,26.8,15.7,49.5,15.7l0,0c-25,0-45.6-3.4-53.2-13.9c2,7.8,6.7,14.5,13.1,18.9c5.3,3.6,11.7,5.8,18.6,5.8v16.2
	c0,10.5-8.5,19-19,19h-0.2c-7.7,0-14.7-1.1-20.9-3.2c-20.8-7.2-32.6-25.9-32.6-53.2c0-24.9,10.6-42.7,29.2-50.9
	c4.8-2.1,9.9-3.5,15-4.3c3.2-0.5,6.4-0.8,9.5-1c2.2-0.2,4.4,0.1,6.6-0.3c0.4-0.1,0.8-0.2,1.1-0.4c1.4-0.8,1.5-3.8,2-5.3
	c0.8-2.2,1.6-4.4,2.6-6.5c1.3-2.7,2.9-4.4,5.3-5.4c0.8-0.4,1.7-0.7,2.5-1c1.5-0.5,2.9-1,4.1-1.7c2-1.3,3.8-3.2,5.4-5.3
	c-0.2-0.5-0.4-1-0.6-1.5c-0.6-1.5-1.2-3-1.8-4.6c-1.8-4.4-4-8.6-7.6-11.9C107,4.9,100.8,0.6,93.7,0c-4.8-0.3-9.2,1.4-13.4,3.6
	c-5.3,2.7-10.3,5.9-15.3,9.1c-3.4,2.2-7,3.8-10.4,5.9c-2.2,1.3-4.3,2.7-6,4.5c-0.8,0.9-1.6,2-2.2,3.1c-0.6,1.4-0.9,3-1.8,4.3
	c-1,1.6-2.7,2.2-4.2,3.2c-1.8,1.1-3.6,2.4-5.4,3.6c-3.4,2.5-6.7,5.3-9.8,8.4c-5.6,5.6-10.3,12-14,18.9c-3.9,7.2-6.8,15-8.6,23
	C0.8,95.1,0,102.8,0,110.5c0,26.6,9.1,50.6,25,66C41.6,192.3,63.2,200,90.9,200c8.5,0,16.6-0.8,23.9-2c1.4-0.2,2.7-0.4,4-0.7
	c17.2-4,29.9-19.4,29.9-37.7v-40C148.7,107.2,138.6,97,126.1,97z M88,21c0.3-0.7,0.6-1.2,1.1-1.7c1.3-1.3,3.4-1.8,5.2-1.1
	c0.6,0.2,1.1,0.6,1.6,1c1.4,1.3,2,3.5,1.3,5.4c-1,2.6-3.8,3.8-6.4,2.8C88.3,26.4,87,23.6,88,21z"/>
<g>
	<path class="st1" d="M253.2,131.4c-3.8,1.4-11.4,3.6-20.3,3.6c-10,0-18.3-2.6-24.8-8.7c-5.7-5.5-9.2-14.3-9.2-24.7
		c0.1-19.7,13.7-34.2,35.9-34.2c7.7,0,13.7,1.7,16.5,3l-2.1,7c-3.5-1.6-8-2.8-14.6-2.8c-16.1,0-26.6,10-26.6,26.6
		c0,16.8,10.1,26.7,25.5,26.7c5.6,0,9.4-0.8,11.4-1.8v-19.7h-13.5v-6.9h21.8V131.4z"/>
	<path class="st1" d="M293.1,134.3l-0.7-6h-0.3c-2.7,3.7-7.8,7.1-14.5,7.1c-9.6,0-14.5-6.8-14.5-13.7c0-11.5,10.2-17.8,28.6-17.7v-1
		c0-3.9-1.1-11-10.8-11c-4.4,0-9,1.4-12.4,3.5l-2-5.7c3.9-2.6,9.6-4.2,15.6-4.2c14.5,0,18.1,9.9,18.1,19.5v17.8
		c0,4.1,0.2,8.2,0.8,11.4H293.1z M291.9,110.1c-9.4-0.2-20.1,1.5-20.1,10.7c0,5.6,3.7,8.3,8.2,8.3c6.2,0,10.1-3.9,11.5-8
		c0.3-0.9,0.5-1.9,0.5-2.8V110.1z"/>
	<path class="st1" d="M314.2,99.7c0-4.9-0.1-8.9-0.4-12.9h7.7l0.5,7.9h0.2c2.4-4.5,7.9-8.9,15.7-8.9c6.6,0,16.8,3.9,16.8,20.2v28.4
		H346v-27.4c0-7.7-2.8-14-11-14c-5.7,0-10.1,4-11.6,8.8c-0.4,1.1-0.6,2.6-0.6,4v28.6h-8.6V99.7z"/>
	<path class="st1" d="M409.8,64.6v57.5c0,4.2,0.1,9,0.4,12.3h-7.8l-0.4-8.3h-0.2c-2.7,5.3-8.5,9.3-16.2,9.3
		c-11.5,0-20.3-9.7-20.3-24.2c-0.1-15.8,9.7-25.5,21.3-25.5c7.3,0,12.2,3.4,14.3,7.3h0.2V64.6H409.8z M401.2,106.1
		c0-1.1-0.1-2.6-0.4-3.6c-1.3-5.5-6-10-12.5-10c-8.9,0-14.2,7.9-14.2,18.4c0,9.6,4.7,17.6,14.1,17.6c5.8,0,11.1-3.8,12.7-10.3
		c0.3-1.2,0.4-2.4,0.4-3.7V106.1z"/>
	<path class="st1" d="M429,112.1c0.2,11.7,7.7,16.5,16.3,16.5c6.2,0,9.9-1.1,13.2-2.5l1.5,6.2c-3,1.4-8.3,2.9-15.8,2.9
		c-14.6,0-23.4-9.6-23.4-24s8.5-25.6,22.3-25.6c15.5,0,19.7,13.7,19.7,22.4c0,1.8-0.2,3.1-0.3,4H429z M454.4,105.9
		c0.1-5.5-2.3-14-12-14c-8.7,0-12.6,8.1-13.3,14H454.4z"/>
	<path class="st1" d="M473.4,101.6c0-5.6-0.1-10.4-0.4-14.8h7.6l0.3,9.3h0.4c2.2-6.4,7.4-10.4,13.2-10.4c1,0,1.7,0.1,2.5,0.3v8.2
		c-0.9-0.2-1.8-0.3-2.9-0.3c-6.1,0-10.4,4.6-11.6,11.1c-0.2,1.2-0.4,2.6-0.4,4v25.3h-8.5V101.6z"/>
</g>
</svg>
