<?xml version="1.0" encoding="utf-8"?>
<!-- Generator: Adobe Illustrator 21.0.0, SVG Export Plug-In . SVG Version: 6.00 Build 0)  -->
<svg version="1.1" id="Layer_1" xmlns="http://www.w3.org/2000/svg" xmlns:xlink="http://www.w3.org/1999/xlink" x="0px" y="0px"
	 viewBox="0 0 241.5 299.1" style="enable-background:new 0 0 241.5 299.1;" xml:space="preserve">
<path d="M187,56c-1.4-1.1-2.7-2.2-4-3.5c-3.1-2.9-6-6.1-8.3-9.7c-2.6-4.1-4.6-8.5-6.3-13c-1.4,1.7-3.1,3.2-4.8,4.4
	c-1.5,0.9-3.1,1.5-4.6,2c-0.8,0.3-1.6,0.5-2.2,0.8c-1.6,0.6-2.6,1.8-3.6,3.7c-1.4,3-2.5,6.3-3.5,9.4c-0.1,0.3-0.2,0.5-0.2,0.8
	c0.6,0.1,1.2,0.3,1.8,0.5c1.1,0.4,2.1,0.7,3.1,1.1c3.9,1.5,7.8,3.5,11.7,5.1c4.1,1.7,8.3,3.4,12.4,5.1c2.1,0.8,4.1,1.7,6.2,2.5
	c1.3,0.5,2.6,1.2,4,1.3c1.8,0,3.7-2,4.2-3.7C193.5,59.8,189,57.6,187,56z M172.4,48.4c0,0-0.2-0.2-1-0.9c-1-0.9-4-4-4.1-4.1
	l-1.4-1.4l2,0.1c0.1,0,1.2,0.1,2.8,0.8c1.9,0.9,2.9,4.7,2.9,4.7l0.5,2L172.4,48.4z"/>
<path d="M171,94.1H127c0,0.1,0,0.2,0,0.3c0.9,3.3,16,8.9,44,8.9l-5.1-0.1c-16.3,0-27.5,1.8-36.3-2.2c6.8,8.7,26,15.2,48,15.2l0,0
	c-24.2,0-44.3-3.3-51.5-13.5c1.9,7.5,6.5,14,12.7,18.3c5.1,3.5,11.3,5.6,18,5.6v15.7c0,10.2-8.2,18.5-18.4,18.5h-0.2
	c-7.5,0-14.3-1-20.2-3.1c-20.1-7-31.7-25.1-31.7-51.5c0-24.1,10.2-41.4,28.3-49.4c4.7-2.1,9.6-3.4,14.6-4.2c3.1-0.5,6.2-0.8,9.2-1
	c2.1-0.2,4.3,0.1,6.4-0.3c0.3-0.1,0.7-0.2,1.1-0.3c1.4-0.8,1.4-3.7,1.9-5.1c0.7-2.1,1.5-4.2,2.5-6.3c1.2-2.6,2.8-4.3,5.2-5.2
	c0.8-0.3,1.6-0.7,2.4-0.9c1.4-0.5,2.8-1,4-1.7c2-1.3,3.6-3.1,5.2-5.2c-0.2-0.5-0.3-0.9-0.5-1.4c-0.6-1.5-1.2-2.9-1.8-4.5
	c-1.7-4.3-3.9-8.4-7.3-11.5c-4.9-4.5-11-8.6-17.9-9.2c-4.7-0.3-9,1.3-13,3.5c-5.2,2.6-10,5.7-14.9,8.8c-3.3,2.1-6.8,3.7-10.1,5.7
	c-2.1,1.2-4.2,2.6-5.9,4.4c-0.8,0.9-1.6,1.9-2.1,3c-0.6,1.4-0.9,2.9-1.7,4.2c-1,1.5-2.6,2.1-4.1,3.1c-1.8,1.1-3.5,2.3-5.2,3.5
	c-3.3,2.4-6.5,5.2-9.5,8.1c-5.4,5.4-10,11.6-13.6,18.3c-3.8,7-6.6,14.5-8.3,22.3c-1.6,7.3-2.4,14.7-2.4,22.2
	c0,25.8,8.8,49.1,24.2,64c16.1,15.4,37,22.8,63.9,22.8c8.3,0,16.1-0.8,23.2-1.9c1.3-0.2,2.6-0.4,3.9-0.7c16.6-3.9,29-18.8,29-36.6
	V116C192.8,103.9,183.1,94.1,171,94.1z M134,20.4c0.3-0.7,0.6-1.2,1.1-1.7c1.3-1.3,3.3-1.8,5.1-1.1c0.6,0.2,1.1,0.5,1.5,0.9
	c1.4,1.3,2,3.4,1.2,5.2c-0.9,2.5-3.7,3.7-6.2,2.8C134.3,25.6,133,22.8,134,20.4z"/>
<g>
	<path d="M44,296.7c-3.1,1.1-9.2,2.9-16.5,2.9c-8.1,0-14.8-2.1-20.1-7.1C2.9,288.1,0,281,0,272.6c0.1-16,11.1-27.7,29.1-27.7
		c6.2,0,11.1,1.4,13.4,2.5l-1.7,5.7c-2.9-1.3-6.4-2.3-11.9-2.3c-13.1,0-21.6,8.1-21.6,21.6c0,13.6,8.2,21.7,20.7,21.7
		c4.5,0,7.6-0.6,9.2-1.4v-16H26.4v-5.6H44V296.7z"/>
	<path d="M76.4,299.1l-0.6-4.9h-0.2c-2.1,3-6.3,5.7-11.8,5.7C56,300,52,294.5,52,288.9c0-9.3,8.3-14.4,23.2-14.3v-0.8
		c0-3.2-0.9-8.9-8.8-8.9c-3.6,0-7.3,1.1-10,2.9l-1.6-4.6c3.2-2.1,7.8-3.4,12.7-3.4c11.8,0,14.6,8,14.6,15.8v14.4
		c0,3.3,0.2,6.6,0.6,9.2H76.4z M75.3,279.5c-7.6-0.2-16.3,1.2-16.3,8.7c0,4.5,3,6.7,6.6,6.7c5,0,8.2-3.2,9.3-6.5
		c0.2-0.7,0.4-1.5,0.4-2.2V279.5z"/>
	<path d="M93.4,271c0-4-0.1-7.2-0.3-10.4h6.2l0.4,6.4h0.2c1.9-3.7,6.4-7.2,12.7-7.2c5.3,0,13.6,3.2,13.6,16.4v23h-7v-22.2
		c0-6.2-2.3-11.4-8.9-11.4c-4.6,0-8.2,3.3-9.4,7.2c-0.3,0.9-0.5,2.1-0.5,3.3v23.2h-7V271z"/>
	<path d="M170.9,242.6v46.6c0,3.4,0.1,7.3,0.3,10H165l-0.3-6.7h-0.2c-2.2,4.3-6.8,7.6-13.1,7.6c-9.3,0-16.5-7.9-16.5-19.6
		c-0.1-12.8,7.9-20.7,17.3-20.7c5.9,0,9.9,2.8,11.6,5.9h0.2v-23H170.9z M163.9,276.3c0-0.9-0.1-2.1-0.3-2.9c-1-4.5-4.9-8.1-10.1-8.1
		c-7.2,0-11.5,6.4-11.5,14.9c0,7.8,3.8,14.2,11.4,14.2c4.7,0,9-3.1,10.3-8.4c0.2-1,0.3-1.9,0.3-3V276.3z"/>
	<path d="M186.5,281.1c0.2,9.5,6.2,13.4,13.2,13.4c5,0,8-0.9,10.7-2l1.2,5c-2.5,1.1-6.7,2.4-12.8,2.4c-11.9,0-18.9-7.8-18.9-19.4
		c0-11.6,6.8-20.8,18.1-20.8c12.6,0,15.9,11.1,15.9,18.2c0,1.4-0.2,2.5-0.2,3.3H186.5z M207,276.1c0.1-4.5-1.8-11.4-9.7-11.4
		c-7.1,0-10.2,6.5-10.7,11.4H207z"/>
	<path d="M222.5,272.6c0-4.5-0.1-8.4-0.3-12h6.1l0.2,7.6h0.3c1.8-5.2,6-8.4,10.7-8.4c0.8,0,1.4,0.1,2,0.2v6.6
		c-0.7-0.2-1.4-0.2-2.4-0.2c-4.9,0-8.4,3.7-9.4,9c-0.2,1-0.3,2.1-0.3,3.3v20.5h-6.9V272.6z"/>
</g>
</svg>
